<svg width="161" height="17" viewBox="0 0 161 17" fill="none" xmlns="http://www.w3.org/2000/svg">
<path d="M28.6113 5.60352V13H26.957V5.60352H28.6113ZM26.8477 3.66211C26.8477 3.41146 26.9297 3.2041 27.0938 3.04004C27.2624 2.87142 27.4948 2.78711 27.791 2.78711C28.0827 2.78711 28.3128 2.87142 28.4814 3.04004C28.6501 3.2041 28.7344 3.41146 28.7344 3.66211C28.7344 3.9082 28.6501 4.11328 28.4814 4.27734C28.3128 4.44141 28.0827 4.52344 27.791 4.52344C27.4948 4.52344 27.2624 4.44141 27.0938 4.27734C26.9297 4.11328 26.8477 3.9082 26.8477 3.66211ZM32.3298 7.18262V13H30.6823V5.60352H32.2341L32.3298 7.18262ZM32.0359 9.02832L31.5027 9.02148C31.5072 8.4974 31.5801 8.0166 31.7214 7.5791C31.8672 7.1416 32.0678 6.76562 32.323 6.45117C32.5827 6.13672 32.8926 5.89518 33.2527 5.72656C33.6127 5.55339 34.0137 5.4668 34.4558 5.4668C34.8112 5.4668 35.1325 5.51693 35.4196 5.61719C35.7113 5.71289 35.9597 5.87012 36.1648 6.08887C36.3744 6.30762 36.5339 6.59245 36.6433 6.94336C36.7527 7.28971 36.8073 7.71582 36.8073 8.22168V13H35.153V8.21484C35.153 7.85938 35.1006 7.5791 34.9958 7.37402C34.8956 7.16439 34.7474 7.01628 34.5515 6.92969C34.3601 6.83854 34.1208 6.79297 33.8337 6.79297C33.5512 6.79297 33.2982 6.85221 33.0749 6.9707C32.8516 7.08919 32.6625 7.25098 32.5075 7.45605C32.3571 7.66113 32.2409 7.89811 32.1589 8.16699C32.0769 8.43587 32.0359 8.72298 32.0359 9.02832ZM40.9975 13H39.35V4.89258C39.35 4.34115 39.4526 3.87858 39.6577 3.50488C39.8673 3.12663 40.1658 2.8418 40.5532 2.65039C40.9405 2.45443 41.3985 2.35645 41.9272 2.35645C42.0913 2.35645 42.253 2.36784 42.4125 2.39062C42.572 2.40885 42.727 2.43848 42.8774 2.47949L42.8364 3.75098C42.7452 3.72819 42.645 3.71224 42.5356 3.70312C42.4308 3.69401 42.3168 3.68945 42.1938 3.68945C41.9431 3.68945 41.7267 3.7373 41.5444 3.83301C41.3666 3.92415 41.2299 4.05859 41.1342 4.23633C41.0431 4.41406 40.9975 4.63281 40.9975 4.89258V13ZM42.5219 5.60352V6.80664H38.2153V5.60352H42.5219ZM43.6838 9.38379V9.22656C43.6838 8.69336 43.7612 8.19889 43.9162 7.74316C44.0711 7.28288 44.2944 6.88411 44.5861 6.54688C44.8823 6.20508 45.2423 5.94076 45.6662 5.75391C46.0946 5.5625 46.5776 5.4668 47.1154 5.4668C47.6577 5.4668 48.1408 5.5625 48.5646 5.75391C48.993 5.94076 49.3553 6.20508 49.6515 6.54688C49.9477 6.88411 50.1733 7.28288 50.3283 7.74316C50.4832 8.19889 50.5607 8.69336 50.5607 9.22656V9.38379C50.5607 9.91699 50.4832 10.4115 50.3283 10.8672C50.1733 11.3229 49.9477 11.7217 49.6515 12.0635C49.3553 12.4007 48.9953 12.665 48.5714 12.8564C48.1476 13.0433 47.6668 13.1367 47.1291 13.1367C46.5867 13.1367 46.1014 13.0433 45.673 12.8564C45.2492 12.665 44.8892 12.4007 44.5929 12.0635C44.2967 11.7217 44.0711 11.3229 43.9162 10.8672C43.7612 10.4115 43.6838 9.91699 43.6838 9.38379ZM45.3312 9.22656V9.38379C45.3312 9.71647 45.3654 10.0309 45.4338 10.3271C45.5021 10.6234 45.6092 10.8831 45.755 11.1064C45.9009 11.3298 46.0877 11.5052 46.3156 11.6328C46.5435 11.7604 46.8146 11.8242 47.1291 11.8242C47.4344 11.8242 47.6987 11.7604 47.922 11.6328C48.1499 11.5052 48.3367 11.3298 48.4826 11.1064C48.6284 10.8831 48.7355 10.6234 48.8039 10.3271C48.8768 10.0309 48.9132 9.71647 48.9132 9.38379V9.22656C48.9132 8.89844 48.8768 8.58854 48.8039 8.29688C48.7355 8.00065 48.6261 7.73861 48.4757 7.51074C48.3299 7.28288 48.1431 7.10514 47.9152 6.97754C47.6919 6.84538 47.4253 6.7793 47.1154 6.7793C46.8055 6.7793 46.5366 6.84538 46.3088 6.97754C46.0854 7.10514 45.9009 7.28288 45.755 7.51074C45.6092 7.73861 45.5021 8.00065 45.4338 8.29688C45.3654 8.58854 45.3312 8.89844 45.3312 9.22656ZM63.2889 9.44531C63.2707 9.88737 63.2046 10.3271 63.0907 10.7646C62.9768 11.2021 62.8036 11.6009 62.5712 11.9609C62.3433 12.321 62.0494 12.6081 61.6893 12.8223C61.3293 13.0365 60.8964 13.1436 60.3905 13.1436C60.0852 13.1436 59.814 13.0911 59.577 12.9863C59.3401 12.877 59.1418 12.722 58.9823 12.5215C58.8274 12.321 58.7157 12.0794 58.6473 11.7969C58.579 11.5098 58.5608 11.1908 58.5927 10.8398L58.9413 6.96387H60.1376L59.7958 10.8398C59.7684 11.1178 59.773 11.3457 59.8095 11.5234C59.8505 11.7012 59.912 11.8379 59.994 11.9336C60.0761 12.0293 60.1695 12.0954 60.2743 12.1318C60.3791 12.1683 60.4839 12.1865 60.5888 12.1865C60.8348 12.1865 61.0559 12.1182 61.2518 11.9814C61.4478 11.8402 61.6141 11.6465 61.7509 11.4004C61.8921 11.1497 62.0015 10.8604 62.079 10.5322C62.161 10.2041 62.2089 9.84863 62.2225 9.46582C62.2544 8.8278 62.2248 8.23991 62.1337 7.70215C62.0425 7.15983 61.8876 6.67676 61.6688 6.25293C61.4546 5.8291 61.1744 5.47135 60.828 5.17969C60.4862 4.88346 60.0761 4.65788 59.5975 4.50293C59.119 4.34798 58.5721 4.27051 57.9569 4.27051C57.3918 4.27051 56.87 4.3571 56.3915 4.53027C55.913 4.70345 55.4846 4.9541 55.1063 5.28223C54.7281 5.60579 54.4022 5.99544 54.1288 6.45117C53.8599 6.90234 53.648 7.41048 53.493 7.97559C53.3427 8.53613 53.2538 9.1377 53.2264 9.78027C53.1945 10.4548 53.2287 11.07 53.329 11.626C53.4338 12.182 53.6024 12.6742 53.8348 13.1025C54.0673 13.5309 54.3589 13.891 54.7098 14.1826C55.0653 14.4788 55.4755 14.7021 55.9403 14.8525C56.4097 15.0029 56.9292 15.0781 57.4989 15.0781C57.8999 15.0781 58.3055 15.0326 58.7157 14.9414C59.1304 14.8503 59.4791 14.7295 59.7616 14.5791L60.0214 15.4883C59.7024 15.6934 59.3036 15.846 58.8251 15.9463C58.3466 16.0465 57.8954 16.0967 57.4716 16.0967C56.7652 16.0967 56.118 16.0055 55.5302 15.8232C54.9468 15.641 54.4296 15.3721 53.9784 15.0166C53.5318 14.6657 53.1604 14.235 52.8641 13.7246C52.5679 13.2142 52.3492 12.6286 52.2079 11.9678C52.0666 11.307 52.0119 10.5778 52.0438 9.78027C52.0757 9.03288 52.1897 8.33105 52.3856 7.6748C52.5816 7.014 52.8505 6.41471 53.1923 5.87695C53.5386 5.33919 53.9488 4.87663 54.4227 4.48926C54.9013 4.09733 55.439 3.79655 56.036 3.58691C56.633 3.37728 57.2824 3.27246 57.9843 3.27246C58.6952 3.27246 59.3378 3.36589 59.912 3.55273C60.4862 3.73958 60.9898 4.01074 61.4227 4.36621C61.8602 4.72168 62.2225 5.15234 62.5096 5.6582C62.7968 6.16406 63.0064 6.736 63.1386 7.37402C63.2707 8.00749 63.3208 8.69792 63.2889 9.44531ZM56.3368 10.0947C56.3049 10.4046 56.3026 10.6803 56.33 10.9219C56.3619 11.1634 56.4188 11.3662 56.5009 11.5303C56.5874 11.6943 56.6991 11.8197 56.8358 11.9062C56.9725 11.9928 57.132 12.0361 57.3143 12.0361C57.4283 12.0361 57.549 12.0088 57.6766 11.9541C57.8088 11.8949 57.9387 11.8014 58.0663 11.6738C58.1939 11.5462 58.3147 11.3776 58.4286 11.168C58.5425 10.9538 58.6382 10.6895 58.7157 10.375L59.2352 10.9697C59.1304 11.3252 58.9983 11.6396 58.8388 11.9131C58.6792 12.182 58.4992 12.4076 58.2987 12.5898C58.0982 12.7676 57.8817 12.9043 57.6493 13C57.4169 13.0911 57.1753 13.1367 56.9247 13.1367C56.592 13.1367 56.2958 13.0638 56.036 12.918C55.7808 12.7721 55.5712 12.5671 55.4071 12.3027C55.243 12.0339 55.1268 11.7148 55.0585 11.3457C54.9901 10.972 54.9764 10.555 55.0175 10.0947C55.063 9.62533 55.1496 9.1901 55.2772 8.78906C55.4094 8.38802 55.5712 8.03027 55.7626 7.71582C55.9585 7.40137 56.1796 7.13477 56.4257 6.91602C56.6718 6.69271 56.9361 6.52409 57.2186 6.41016C57.5057 6.29167 57.7997 6.23242 58.1005 6.23242C58.6154 6.23242 59.0188 6.30534 59.3104 6.45117C59.6021 6.59701 59.8778 6.7679 60.1376 6.96387L59.495 7.78418C59.3628 7.66113 59.1897 7.54492 58.9755 7.43555C58.7658 7.32617 58.5152 7.27148 58.2235 7.27148C57.9638 7.27148 57.7268 7.33073 57.5126 7.44922C57.3029 7.56771 57.1184 7.74772 56.9589 7.98926C56.7994 8.22624 56.6649 8.52018 56.5555 8.87109C56.4507 9.22201 56.3778 9.62988 56.3368 10.0947ZM69.5777 11.4688V2.5H71.232V13H69.735L69.5777 11.4688ZM64.7652 9.38379V9.24023C64.7652 8.67969 64.8313 8.16927 64.9635 7.70898C65.0956 7.24414 65.287 6.84538 65.5377 6.5127C65.7883 6.17546 66.0937 5.91797 66.4537 5.74023C66.8137 5.55794 67.2193 5.4668 67.6705 5.4668C68.1171 5.4668 68.5091 5.55339 68.8463 5.72656C69.1835 5.89974 69.4706 6.14811 69.7076 6.47168C69.9446 6.79069 70.1337 7.1735 70.275 7.62012C70.4163 8.06217 70.5165 8.55436 70.5758 9.09668V9.55469C70.5165 10.0833 70.4163 10.5664 70.275 11.0039C70.1337 11.4414 69.9446 11.8197 69.7076 12.1387C69.4706 12.4577 69.1813 12.7038 68.8395 12.877C68.5022 13.0501 68.108 13.1367 67.6568 13.1367C67.2102 13.1367 66.8069 13.0433 66.4469 12.8564C66.0914 12.6696 65.7883 12.4076 65.5377 12.0703C65.287 11.7331 65.0956 11.3366 64.9635 10.8809C64.8313 10.4206 64.7652 9.92155 64.7652 9.38379ZM66.4127 9.24023V9.38379C66.4127 9.72103 66.4423 10.0355 66.5016 10.3271C66.5654 10.6188 66.6633 10.8763 66.7955 11.0996C66.9277 11.3184 67.0986 11.4915 67.3082 11.6191C67.5224 11.7422 67.7776 11.8037 68.0738 11.8037C68.4475 11.8037 68.7551 11.7217 68.9967 11.5576C69.2382 11.3936 69.4273 11.1725 69.5641 10.8945C69.7053 10.612 69.801 10.2975 69.8512 9.95117V8.71387C69.8238 8.44499 69.7669 8.19434 69.6803 7.96191C69.5982 7.72949 69.4866 7.52669 69.3453 7.35352C69.204 7.17578 69.0286 7.03906 68.8189 6.94336C68.6139 6.8431 68.3701 6.79297 68.0875 6.79297C67.7867 6.79297 67.5315 6.85677 67.3219 6.98438C67.1122 7.11198 66.9391 7.28743 66.8023 7.51074C66.6702 7.73405 66.5722 7.99382 66.5084 8.29004C66.4446 8.58626 66.4127 8.90299 66.4127 9.24023ZM76.4954 13.1367C75.9486 13.1367 75.4541 13.0479 75.012 12.8701C74.5745 12.6878 74.2008 12.4349 73.8909 12.1113C73.5856 11.7878 73.3509 11.4072 73.1868 10.9697C73.0228 10.5322 72.9407 10.0605 72.9407 9.55469V9.28125C72.9407 8.70247 73.0251 8.17839 73.1937 7.70898C73.3623 7.23958 73.597 6.83854 73.8978 6.50586C74.1986 6.16862 74.554 5.91113 74.9642 5.7334C75.3743 5.55566 75.8187 5.4668 76.2972 5.4668C76.8258 5.4668 77.2884 5.55566 77.6849 5.7334C78.0814 5.91113 78.4095 6.16178 78.6693 6.48535C78.9336 6.80436 79.1295 7.1849 79.2571 7.62695C79.3893 8.06901 79.4554 8.55664 79.4554 9.08984V9.79395H73.7405V8.61133H77.8284V8.48145C77.8193 8.18522 77.7601 7.90723 77.6507 7.64746C77.5459 7.3877 77.3841 7.17806 77.1654 7.01855C76.9466 6.85905 76.6549 6.7793 76.2904 6.7793C76.0169 6.7793 75.7731 6.83854 75.5589 6.95703C75.3493 7.07096 75.1738 7.2373 75.0325 7.45605C74.8913 7.6748 74.7819 7.93913 74.7044 8.24902C74.6315 8.55436 74.595 8.89844 74.595 9.28125V9.55469C74.595 9.87826 74.6383 10.179 74.7249 10.457C74.8161 10.7305 74.9482 10.9697 75.1214 11.1748C75.2946 11.3799 75.5042 11.5417 75.7503 11.6602C75.9964 11.7741 76.2767 11.8311 76.5911 11.8311C76.9876 11.8311 77.3408 11.7513 77.6507 11.5918C77.9606 11.4323 78.2295 11.2067 78.4573 10.915L79.3255 11.7559C79.166 11.9883 78.9586 12.2116 78.7034 12.4258C78.4482 12.6354 78.1361 12.8063 77.7669 12.9385C77.4023 13.0706 76.9785 13.1367 76.4954 13.1367ZM83.3311 11.6943L85.1426 5.60352H86.8516L84.2813 13H83.2149L83.3311 11.6943ZM81.9434 5.60352L83.7891 11.7217L83.878 13H82.8116L80.2276 5.60352H81.9434ZM92.2996 10.9971C92.2996 10.833 92.2586 10.6849 92.1765 10.5527C92.0945 10.416 91.9373 10.293 91.7048 10.1836C91.477 10.0742 91.1397 9.97396 90.6931 9.88281C90.3012 9.79622 89.9412 9.69368 89.613 9.5752C89.2895 9.45215 89.0115 9.30404 88.7791 9.13086C88.5466 8.95768 88.3666 8.7526 88.239 8.51562C88.1114 8.27865 88.0476 8.00521 88.0476 7.69531C88.0476 7.39453 88.1137 7.1097 88.2459 6.84082C88.378 6.57194 88.5672 6.33496 88.8132 6.12988C89.0593 5.9248 89.3578 5.76302 89.7088 5.64453C90.0642 5.52604 90.4607 5.4668 90.8982 5.4668C91.518 5.4668 92.0489 5.57161 92.491 5.78125C92.9376 5.98633 93.2794 6.2666 93.5164 6.62207C93.7533 6.97298 93.8718 7.36947 93.8718 7.81152H92.2244C92.2244 7.61556 92.1742 7.43327 92.074 7.26465C91.9783 7.09147 91.8324 6.95247 91.6365 6.84766C91.4405 6.73828 91.1944 6.68359 90.8982 6.68359C90.6157 6.68359 90.381 6.72917 90.1941 6.82031C90.0118 6.9069 89.8751 7.02083 89.7839 7.16211C89.6974 7.30339 89.6541 7.45833 89.6541 7.62695C89.6541 7.75 89.6769 7.86165 89.7224 7.96191C89.7726 8.05762 89.8546 8.14648 89.9685 8.22852C90.0824 8.30599 90.2374 8.37891 90.4334 8.44727C90.6339 8.51562 90.8845 8.58171 91.1853 8.64551C91.7504 8.764 92.2358 8.91667 92.6414 9.10352C93.0515 9.28581 93.366 9.52279 93.5847 9.81445C93.8035 10.1016 93.9129 10.4661 93.9129 10.9082C93.9129 11.2363 93.8422 11.5371 93.7009 11.8105C93.5642 12.0794 93.3637 12.3141 93.0994 12.5146C92.8351 12.7106 92.5183 12.8633 92.1492 12.9727C91.7846 13.082 91.3744 13.1367 90.9187 13.1367C90.2488 13.1367 89.6814 13.0182 89.2166 12.7812C88.7517 12.5397 88.3985 12.2321 88.157 11.8584C87.92 11.4801 87.8015 11.0882 87.8015 10.6826H89.3943C89.4125 10.988 89.4968 11.2318 89.6472 11.4141C89.8022 11.5918 89.9936 11.7217 90.2214 11.8037C90.4539 11.8812 90.6931 11.9199 90.9392 11.9199C91.2354 11.9199 91.4838 11.8812 91.6843 11.8037C91.8849 11.7217 92.0375 11.6123 92.1423 11.4756C92.2472 11.3343 92.2996 11.1748 92.2996 10.9971ZM99.0259 5.60352V6.80664H94.8559V5.60352H99.0259ZM96.0591 3.79199H97.7065V10.9561C97.7065 11.1839 97.7384 11.3594 97.8022 11.4824C97.8706 11.6009 97.964 11.6807 98.0825 11.7217C98.201 11.7627 98.34 11.7832 98.4995 11.7832C98.6134 11.7832 98.7228 11.7764 98.8276 11.7627C98.9324 11.749 99.0167 11.7354 99.0805 11.7217L99.0874 12.9795C98.9507 13.0205 98.7912 13.057 98.6089 13.0889C98.4311 13.1208 98.2261 13.1367 97.9936 13.1367C97.6154 13.1367 97.2804 13.0706 96.9887 12.9385C96.6971 12.8018 96.4692 12.5807 96.3052 12.2754C96.1411 11.9701 96.0591 11.5645 96.0591 11.0586V3.79199ZM105.028 11.2568V5.60352H106.682V13H105.123L105.028 11.2568ZM105.26 9.71875L105.814 9.70508C105.814 10.2018 105.759 10.6598 105.65 11.0791C105.54 11.4938 105.372 11.8561 105.144 12.166C104.916 12.4714 104.624 12.7106 104.269 12.8838C103.913 13.0524 103.487 13.1367 102.99 13.1367C102.63 13.1367 102.3 13.0843 101.999 12.9795C101.698 12.8747 101.439 12.7129 101.22 12.4941C101.006 12.2754 100.839 11.9906 100.721 11.6396C100.602 11.2887 100.543 10.8695 100.543 10.3818V5.60352H102.191V10.3955C102.191 10.6644 102.223 10.89 102.286 11.0723C102.35 11.25 102.437 11.3936 102.546 11.5029C102.655 11.6123 102.783 11.6898 102.929 11.7354C103.075 11.7809 103.23 11.8037 103.394 11.8037C103.863 11.8037 104.232 11.7126 104.501 11.5303C104.775 11.3434 104.968 11.0928 105.082 10.7783C105.201 10.4639 105.26 10.1107 105.26 9.71875ZM113.162 11.4688V2.5H114.816V13H113.319L113.162 11.4688ZM108.35 9.38379V9.24023C108.35 8.67969 108.416 8.16927 108.548 7.70898C108.68 7.24414 108.871 6.84538 109.122 6.5127C109.373 6.17546 109.678 5.91797 110.038 5.74023C110.398 5.55794 110.804 5.4668 111.255 5.4668C111.701 5.4668 112.093 5.55339 112.431 5.72656C112.768 5.89974 113.055 6.14811 113.292 6.47168C113.529 6.79069 113.718 7.1735 113.859 7.62012C114.001 8.06217 114.101 8.55436 114.16 9.09668V9.55469C114.101 10.0833 114.001 10.5664 113.859 11.0039C113.718 11.4414 113.529 11.8197 113.292 12.1387C113.055 12.4577 112.766 12.7038 112.424 12.877C112.087 13.0501 111.692 13.1367 111.241 13.1367C110.795 13.1367 110.391 13.0433 110.031 12.8564C109.676 12.6696 109.373 12.4076 109.122 12.0703C108.871 11.7331 108.68 11.3366 108.548 10.8809C108.416 10.4206 108.35 9.92155 108.35 9.38379ZM109.997 9.24023V9.38379C109.997 9.72103 110.027 10.0355 110.086 10.3271C110.15 10.6188 110.248 10.8763 110.38 11.0996C110.512 11.3184 110.683 11.4915 110.893 11.6191C111.107 11.7422 111.362 11.8037 111.658 11.8037C112.032 11.8037 112.339 11.7217 112.581 11.5576C112.823 11.3936 113.012 11.1725 113.148 10.8945C113.29 10.612 113.385 10.2975 113.435 9.95117V8.71387C113.408 8.44499 113.351 8.19434 113.265 7.96191C113.183 7.72949 113.071 7.52669 112.93 7.35352C112.788 7.17578 112.613 7.03906 112.403 6.94336C112.198 6.8431 111.954 6.79297 111.672 6.79297C111.371 6.79297 111.116 6.85677 110.906 6.98438C110.697 7.11198 110.523 7.28743 110.387 7.51074C110.254 7.73405 110.156 7.99382 110.093 8.29004C110.029 8.58626 109.997 8.90299 109.997 9.24023ZM118.583 5.60352V13H116.928V5.60352H118.583ZM116.819 3.66211C116.819 3.41146 116.901 3.2041 117.065 3.04004C117.234 2.87142 117.466 2.78711 117.762 2.78711C118.054 2.78711 118.284 2.87142 118.453 3.04004C118.621 3.2041 118.706 3.41146 118.706 3.66211C118.706 3.9082 118.621 4.11328 118.453 4.27734C118.284 4.44141 118.054 4.52344 117.762 4.52344C117.466 4.52344 117.234 4.44141 117.065 4.27734C116.901 4.11328 116.819 3.9082 116.819 3.66211ZM120.353 9.38379V9.22656C120.353 8.69336 120.43 8.19889 120.585 7.74316C120.74 7.28288 120.964 6.88411 121.255 6.54688C121.551 6.20508 121.911 5.94076 122.335 5.75391C122.764 5.5625 123.247 5.4668 123.785 5.4668C124.327 5.4668 124.81 5.5625 125.234 5.75391C125.662 5.94076 126.024 6.20508 126.321 6.54688C126.617 6.88411 126.842 7.28288 126.997 7.74316C127.152 8.19889 127.23 8.69336 127.23 9.22656V9.38379C127.23 9.91699 127.152 10.4115 126.997 10.8672C126.842 11.3229 126.617 11.7217 126.321 12.0635C126.024 12.4007 125.664 12.665 125.241 12.8564C124.817 13.0433 124.336 13.1367 123.798 13.1367C123.256 13.1367 122.771 13.0433 122.342 12.8564C121.918 12.665 121.558 12.4007 121.262 12.0635C120.966 11.7217 120.74 11.3229 120.585 10.8672C120.43 10.4115 120.353 9.91699 120.353 9.38379ZM122 9.22656V9.38379C122 9.71647 122.035 10.0309 122.103 10.3271C122.171 10.6234 122.278 10.8831 122.424 11.1064C122.57 11.3298 122.757 11.5052 122.985 11.6328C123.213 11.7604 123.484 11.8242 123.798 11.8242C124.104 11.8242 124.368 11.7604 124.591 11.6328C124.819 11.5052 125.006 11.3298 125.152 11.1064C125.298 10.8831 125.405 10.6234 125.473 10.3271C125.546 10.0309 125.582 9.71647 125.582 9.38379V9.22656C125.582 8.89844 125.546 8.58854 125.473 8.29688C125.405 8.00065 125.295 7.73861 125.145 7.51074C124.999 7.28288 124.812 7.10514 124.584 6.97754C124.361 6.84538 124.094 6.7793 123.785 6.7793C123.475 6.7793 123.206 6.84538 122.978 6.97754C122.755 7.10514 122.57 7.28288 122.424 7.51074C122.278 7.73861 122.171 8.00065 122.103 8.29688C122.035 8.58854 122 8.89844 122 9.22656ZM128.959 12.1797C128.959 11.9245 129.046 11.7103 129.219 11.5371C129.392 11.3594 129.627 11.2705 129.923 11.2705C130.224 11.2705 130.458 11.3594 130.627 11.5371C130.8 11.7103 130.887 11.9245 130.887 12.1797C130.887 12.4349 130.8 12.6491 130.627 12.8223C130.458 12.9954 130.224 13.082 129.923 13.082C129.627 13.082 129.392 12.9954 129.219 12.8223C129.046 12.6491 128.959 12.4349 128.959 12.1797ZM136.089 11.8242C136.358 11.8242 136.599 11.7718 136.813 11.667C137.032 11.5576 137.207 11.4072 137.34 11.2158C137.476 11.0244 137.552 10.8034 137.565 10.5527H139.117C139.108 11.0312 138.967 11.4665 138.693 11.8584C138.42 12.2503 138.057 12.5625 137.606 12.7949C137.155 13.0228 136.656 13.1367 136.109 13.1367C135.544 13.1367 135.052 13.041 134.633 12.8496C134.213 12.6536 133.865 12.3848 133.587 12.043C133.309 11.7012 133.099 11.307 132.958 10.8604C132.821 10.4137 132.753 9.93522 132.753 9.4248V9.18555C132.753 8.67513 132.821 8.19661 132.958 7.75C133.099 7.29883 133.309 6.90234 133.587 6.56055C133.865 6.21875 134.213 5.95215 134.633 5.76074C135.052 5.56478 135.542 5.4668 136.102 5.4668C136.695 5.4668 137.214 5.58529 137.661 5.82227C138.108 6.05469 138.458 6.38053 138.714 6.7998C138.973 7.21452 139.108 7.69759 139.117 8.24902H137.565C137.552 7.97559 137.483 7.72949 137.36 7.51074C137.242 7.28743 137.073 7.1097 136.854 6.97754C136.64 6.84538 136.383 6.7793 136.082 6.7793C135.749 6.7793 135.473 6.84766 135.255 6.98438C135.036 7.11654 134.865 7.29883 134.742 7.53125C134.619 7.75911 134.53 8.0166 134.475 8.30371C134.425 8.58626 134.4 8.88021 134.4 9.18555V9.4248C134.4 9.73014 134.425 10.0264 134.475 10.3135C134.526 10.6006 134.612 10.8581 134.735 11.0859C134.863 11.3092 135.036 11.4893 135.255 11.626C135.473 11.7581 135.751 11.8242 136.089 11.8242ZM140.347 9.38379V9.22656C140.347 8.69336 140.425 8.19889 140.58 7.74316C140.735 7.28288 140.958 6.88411 141.25 6.54688C141.546 6.20508 141.906 5.94076 142.33 5.75391C142.758 5.5625 143.241 5.4668 143.779 5.4668C144.321 5.4668 144.804 5.5625 145.228 5.75391C145.656 5.94076 146.019 6.20508 146.315 6.54688C146.611 6.88411 146.837 7.28288 146.992 7.74316C147.147 8.19889 147.224 8.69336 147.224 9.22656V9.38379C147.224 9.91699 147.147 10.4115 146.992 10.8672C146.837 11.3229 146.611 11.7217 146.315 12.0635C146.019 12.4007 145.659 12.665 145.235 12.8564C144.811 13.0433 144.33 13.1367 143.793 13.1367C143.25 13.1367 142.765 13.0433 142.336 12.8564C141.913 12.665 141.553 12.4007 141.256 12.0635C140.96 11.7217 140.735 11.3229 140.58 10.8672C140.425 10.4115 140.347 9.91699 140.347 9.38379ZM141.995 9.22656V9.38379C141.995 9.71647 142.029 10.0309 142.097 10.3271C142.166 10.6234 142.273 10.8831 142.418 11.1064C142.564 11.3298 142.751 11.5052 142.979 11.6328C143.207 11.7604 143.478 11.8242 143.793 11.8242C144.098 11.8242 144.362 11.7604 144.585 11.6328C144.813 11.5052 145 11.3298 145.146 11.1064C145.292 10.8831 145.399 10.6234 145.467 10.3271C145.54 10.0309 145.577 9.71647 145.577 9.38379V9.22656C145.577 8.89844 145.54 8.58854 145.467 8.29688C145.399 8.00065 145.29 7.73861 145.139 7.51074C144.993 7.28288 144.807 7.10514 144.579 6.97754C144.355 6.84538 144.089 6.7793 143.779 6.7793C143.469 6.7793 143.2 6.84538 142.972 6.97754C142.749 7.10514 142.564 7.28288 142.418 7.51074C142.273 7.73861 142.166 8.00065 142.097 8.29688C142.029 8.58854 141.995 8.89844 141.995 9.22656ZM150.532 7.10742V13H148.885V5.60352H150.437L150.532 7.10742ZM150.266 9.02832L149.705 9.02148C149.705 8.51107 149.769 8.03939 149.897 7.60645C150.024 7.1735 150.211 6.79753 150.457 6.47852C150.703 6.15495 151.009 5.90658 151.373 5.7334C151.742 5.55566 152.169 5.4668 152.652 5.4668C152.989 5.4668 153.296 5.51693 153.574 5.61719C153.857 5.71289 154.101 5.86556 154.306 6.0752C154.516 6.28483 154.675 6.55371 154.784 6.88184C154.898 7.20996 154.955 7.60645 154.955 8.07129V13H153.308V8.21484C153.308 7.85482 153.253 7.57227 153.144 7.36719C153.039 7.16211 152.886 7.01628 152.686 6.92969C152.49 6.83854 152.255 6.79297 151.982 6.79297C151.672 6.79297 151.407 6.85221 151.189 6.9707C150.975 7.08919 150.799 7.25098 150.662 7.45605C150.526 7.66113 150.425 7.89811 150.362 8.16699C150.298 8.43587 150.266 8.72298 150.266 9.02832ZM154.853 8.59082L154.08 8.76172C154.08 8.3151 154.142 7.89355 154.265 7.49707C154.392 7.09603 154.577 6.74512 154.819 6.44434C155.065 6.139 155.368 5.89974 155.728 5.72656C156.088 5.55339 156.5 5.4668 156.965 5.4668C157.343 5.4668 157.681 5.51921 157.977 5.62402C158.278 5.72428 158.533 5.88379 158.742 6.10254C158.952 6.32129 159.112 6.60612 159.221 6.95703C159.33 7.30339 159.385 7.72266 159.385 8.21484V13H157.731V8.20801C157.731 7.83431 157.676 7.54492 157.567 7.33984C157.462 7.13477 157.311 6.99349 157.115 6.91602C156.92 6.83398 156.685 6.79297 156.411 6.79297C156.156 6.79297 155.931 6.84082 155.735 6.93652C155.543 7.02767 155.381 7.15755 155.249 7.32617C155.117 7.49023 155.017 7.67936 154.948 7.89355C154.885 8.10775 154.853 8.34017 154.853 8.59082Z" fill="#757575"/>
<path d="M14.5 1.98193H1.50001C0.672854 1.98193 0 2.65443 0 3.48114V12.4763C0 13.3031 0.672854 13.9756 1.50001 13.9756H14.5C15.3271 13.9756 16 13.3031 16 12.4763V3.48114C16 2.65443 15.3271 1.98193 14.5 1.98193ZM14.5 2.9814C14.5679 2.9814 14.6325 2.99548 14.6916 3.02008L8 8.81667L1.30833 3.02008C1.36742 2.99552 1.43204 2.9814 1.49998 2.9814H14.5ZM14.5 12.9761H1.50001C1.22414 12.9761 0.999996 12.7521 0.999996 12.4763V4.07603L7.67236 9.85566C7.76661 9.93714 7.8833 9.97767 8 9.97767C8.1167 9.97767 8.23339 9.93718 8.32764 9.85566L15 4.07603V12.4763C15 12.7521 14.7759 12.9761 14.5 12.9761Z" fill="#757575"/>
</svg>
